<mxfile host="Electron" modified="2023-11-13T19:41:39.775Z" agent="Mozilla/5.0 (Windows NT 10.0; Win64; x64) AppleWebKit/537.36 (KHTML, like Gecko) draw.io/22.0.2 Chrome/114.0.5735.289 Electron/25.8.4 Safari/537.36" etag="2lBVlFzkkvDwUU31qbEb" version="22.0.2" type="device">
  <diagram name="Page-1" id="A5dgOEl7laMADKEvgpC6">
    <mxGraphModel dx="1102" dy="811" grid="1" gridSize="10" guides="1" tooltips="1" connect="1" arrows="1" fold="1" page="1" pageScale="1" pageWidth="1100" pageHeight="850" math="0" shadow="0">
      <root>
        <mxCell id="0" />
        <mxCell id="1" parent="0" />
        <mxCell id="kA5b--kJBc94n8Rme-Xi-1" value="" style="edgeStyle=orthogonalEdgeStyle;rounded=0;orthogonalLoop=1;jettySize=auto;html=1;" edge="1" parent="1" source="kA5b--kJBc94n8Rme-Xi-2" target="kA5b--kJBc94n8Rme-Xi-5">
          <mxGeometry relative="1" as="geometry" />
        </mxCell>
        <mxCell id="kA5b--kJBc94n8Rme-Xi-2" value="&lt;p style=&quot;line-height: 90%;&quot;&gt;&lt;font style=&quot;font-size: 10px;&quot;&gt;Start&lt;/font&gt;&lt;/p&gt;" style="ellipse;whiteSpace=wrap;html=1;aspect=fixed;" vertex="1" parent="1">
          <mxGeometry x="80" y="120" width="40" height="40" as="geometry" />
        </mxCell>
        <mxCell id="kA5b--kJBc94n8Rme-Xi-3" value="&lt;font style=&quot;font-size: 10px;&quot;&gt;Finish&lt;/font&gt;" style="ellipse;whiteSpace=wrap;html=1;aspect=fixed;fontSize=7;" vertex="1" parent="1">
          <mxGeometry x="600" y="360" width="40" height="40" as="geometry" />
        </mxCell>
        <mxCell id="kA5b--kJBc94n8Rme-Xi-4" value="" style="edgeStyle=orthogonalEdgeStyle;rounded=0;orthogonalLoop=1;jettySize=auto;html=1;" edge="1" parent="1" source="kA5b--kJBc94n8Rme-Xi-5" target="kA5b--kJBc94n8Rme-Xi-7">
          <mxGeometry relative="1" as="geometry" />
        </mxCell>
        <mxCell id="kA5b--kJBc94n8Rme-Xi-5" value="&lt;font style=&quot;font-size: 10px;&quot;&gt;Select Nav Menu&lt;/font&gt;" style="rounded=1;whiteSpace=wrap;html=1;" vertex="1" parent="1">
          <mxGeometry x="200" y="120" width="120" height="40" as="geometry" />
        </mxCell>
        <mxCell id="kA5b--kJBc94n8Rme-Xi-6" value="" style="edgeStyle=orthogonalEdgeStyle;rounded=0;orthogonalLoop=1;jettySize=auto;html=1;" edge="1" parent="1" source="kA5b--kJBc94n8Rme-Xi-7" target="kA5b--kJBc94n8Rme-Xi-9">
          <mxGeometry relative="1" as="geometry" />
        </mxCell>
        <mxCell id="kA5b--kJBc94n8Rme-Xi-7" value="&lt;font style=&quot;font-size: 10px;&quot;&gt;Click Events Link&lt;/font&gt;" style="rounded=1;whiteSpace=wrap;html=1;" vertex="1" parent="1">
          <mxGeometry x="200" y="240" width="120" height="40" as="geometry" />
        </mxCell>
        <mxCell id="kA5b--kJBc94n8Rme-Xi-8" value="" style="edgeStyle=orthogonalEdgeStyle;rounded=0;orthogonalLoop=1;jettySize=auto;html=1;" edge="1" parent="1" source="kA5b--kJBc94n8Rme-Xi-9" target="kA5b--kJBc94n8Rme-Xi-14">
          <mxGeometry relative="1" as="geometry" />
        </mxCell>
        <mxCell id="kA5b--kJBc94n8Rme-Xi-9" value="&lt;font style=&quot;font-size: 10px;&quot;&gt;Click Individual&lt;br&gt;Event Link&lt;/font&gt;" style="rounded=1;whiteSpace=wrap;html=1;" vertex="1" parent="1">
          <mxGeometry x="200" y="360" width="120" height="40" as="geometry" />
        </mxCell>
        <mxCell id="kA5b--kJBc94n8Rme-Xi-10" value="" style="edgeStyle=orthogonalEdgeStyle;rounded=0;orthogonalLoop=1;jettySize=auto;html=1;" edge="1" parent="1" source="kA5b--kJBc94n8Rme-Xi-14" target="kA5b--kJBc94n8Rme-Xi-16">
          <mxGeometry relative="1" as="geometry" />
        </mxCell>
        <mxCell id="kA5b--kJBc94n8Rme-Xi-11" value="Yes" style="edgeLabel;html=1;align=center;verticalAlign=middle;resizable=0;points=[];" vertex="1" connectable="0" parent="kA5b--kJBc94n8Rme-Xi-10">
          <mxGeometry x="-0.0882" y="1" relative="1" as="geometry">
            <mxPoint as="offset" />
          </mxGeometry>
        </mxCell>
        <mxCell id="kA5b--kJBc94n8Rme-Xi-12" value="" style="edgeStyle=orthogonalEdgeStyle;rounded=0;orthogonalLoop=1;jettySize=auto;html=1;" edge="1" parent="1" source="kA5b--kJBc94n8Rme-Xi-14" target="kA5b--kJBc94n8Rme-Xi-18">
          <mxGeometry relative="1" as="geometry" />
        </mxCell>
        <mxCell id="kA5b--kJBc94n8Rme-Xi-13" value="No" style="edgeLabel;html=1;align=center;verticalAlign=middle;resizable=0;points=[];" vertex="1" connectable="0" parent="kA5b--kJBc94n8Rme-Xi-12">
          <mxGeometry x="-0.1975" relative="1" as="geometry">
            <mxPoint as="offset" />
          </mxGeometry>
        </mxCell>
        <mxCell id="kA5b--kJBc94n8Rme-Xi-14" value="&lt;p style=&quot;line-height: 0%;&quot;&gt;&lt;span style=&quot;font-size: 10px;&quot;&gt;Event&lt;/span&gt;&lt;/p&gt;&lt;p style=&quot;line-height: 0%;&quot;&gt;&lt;span style=&quot;font-size: 10px;&quot;&gt;Accepted?&lt;/span&gt;&lt;/p&gt;" style="rhombus;whiteSpace=wrap;html=1;" vertex="1" parent="1">
          <mxGeometry x="420" y="340" width="80" height="80" as="geometry" />
        </mxCell>
        <mxCell id="kA5b--kJBc94n8Rme-Xi-15" style="edgeStyle=orthogonalEdgeStyle;rounded=0;orthogonalLoop=1;jettySize=auto;html=1;exitX=1;exitY=0.5;exitDx=0;exitDy=0;entryX=0.5;entryY=0;entryDx=0;entryDy=0;" edge="1" parent="1" source="kA5b--kJBc94n8Rme-Xi-16" target="kA5b--kJBc94n8Rme-Xi-3">
          <mxGeometry relative="1" as="geometry" />
        </mxCell>
        <mxCell id="kA5b--kJBc94n8Rme-Xi-16" value="&lt;font style=&quot;font-size: 10px;&quot;&gt;Click Leave Button&lt;/font&gt;" style="rounded=1;whiteSpace=wrap;html=1;" vertex="1" parent="1">
          <mxGeometry x="400" y="240" width="120" height="40" as="geometry" />
        </mxCell>
        <mxCell id="kA5b--kJBc94n8Rme-Xi-17" style="edgeStyle=orthogonalEdgeStyle;rounded=0;orthogonalLoop=1;jettySize=auto;html=1;exitX=1;exitY=0.5;exitDx=0;exitDy=0;entryX=0.5;entryY=1;entryDx=0;entryDy=0;" edge="1" parent="1" source="kA5b--kJBc94n8Rme-Xi-18" target="kA5b--kJBc94n8Rme-Xi-3">
          <mxGeometry relative="1" as="geometry" />
        </mxCell>
        <mxCell id="kA5b--kJBc94n8Rme-Xi-18" value="&lt;font style=&quot;font-size: 10px;&quot;&gt;Reject Request&lt;/font&gt;" style="rounded=1;whiteSpace=wrap;html=1;" vertex="1" parent="1">
          <mxGeometry x="400" y="480" width="120" height="40" as="geometry" />
        </mxCell>
      </root>
    </mxGraphModel>
  </diagram>
</mxfile>
